<?xml version="1.0" encoding="utf-8"?>
<!-- Generator: Adobe Illustrator 21.0.0, SVG Export Plug-In . SVG Version: 6.00 Build 0)  -->
<svg version="1.1" id="Layer_1" xmlns="http://www.w3.org/2000/svg" xmlns:xlink="http://www.w3.org/1999/xlink" x="0px" y="0px"
	 viewBox="0 0 247 237" style="enable-background:new 0 0 247 237;" xml:space="preserve">
<style type="text/css">
	.st0{fill:#3DE2A3;}
	.st1{fill:#FFFFFF;}
</style>
<circle class="st0" cx="123.3" cy="118.6" r="110.4"/>
<path class="st1" d="M34.9,99.9c1.3,4.8,3.7,11,5.8,14.8c0.3,0.5,0.8,1.5,1.1,2.1c0.9,1.6,5.4,5.2,8.9,6.9c4.6,2.3,8.6,3.4,12.9,3.6
	c5,0.2,5.7,0.3,4.9,0.7c-0.8,0.4-6.4,1-8.7,0.9c-3.5-0.1-7.4-0.8-9.9-1.6c-1.9-0.6-2-0.8,1.2,2.7c2,2.2,6.2,5.8,9,7.7
	c3.6,2.5,3.8,2.6,6.4,4c4.9,2.8,7.2,3.9,8.6,4.1c1.6,0.3,5.7,0.3,8,0c2.2-0.3,6.1-1.3,6.8-1.8c0.2-0.2,0.6-0.3,0.8-0.3
	c0.6-0.1,3.1-1.7,4.7-3.1c2.1-1.8,2.6-2.2,2.4-1.7c-0.1,0.3-3.8,3.5-6.3,5.6c-1.4,1.1-5,3.6-6.2,4.3c-0.8,0.5-1.5,0.8-1.4,0.9
	c0,0,1.5,0.5,3.2,1c1.7,0.5,3.6,1.1,4.2,1.3c4.1,1.3,8.9,2.4,12.9,2.9c0.7,0.1,2.1,0.3,3.1,0.5c1,0.1,2.7,0.3,3.7,0.4
	c1,0.1,2.6,0.2,3.4,0.3c2.9,0.3,4.7,0.1,6.3-0.7c1.5-0.8,1.6-0.9,4-2.8c1.8-1.5,4.3-4.6,5.7-7c0.6-1,1.1-1.9,1.3-2.2
	c0.2-0.2,0.6-0.8,0.9-1.3c0.3-0.5,0.6-0.8,0.7-0.8c0.2,0.2-0.5,3-1.6,6.4c-0.3,0.9-0.7,2.3-0.9,2.9c-0.2,0.7-0.8,2-1.3,3
	c-0.5,1-0.9,1.9-0.9,2c0,0.3,5.3-0.3,7.5-0.9c4.3-1.2,7-3.1,10.4-7.4c1.1-1.4,2-2.4,2-2.3s-0.2,0.6-0.5,1.2
	c-0.3,0.5-0.8,1.6-1.2,2.4c-0.4,0.8-1.4,2.3-2.3,3.4l-1.6,2l1.2-0.3c2.1-0.5,6.8-1.9,7.9-2.3c0.6-0.2,1.3-0.5,1.7-0.6
	c1.7-0.5,4.3-2.5,5.9-4.5c2.1-2.7,3-5.2,3-8.2l0-1.8l0.2,1.7c0.1,1,0.2,2.4,0.2,3.2c0,1.7-1,4.8-1.9,6c-0.3,0.4-0.5,0.8-0.5,0.8
	c0,0,1.1-0.4,2.4-1c1.4-0.6,3.1-1.7,4.3-2.6c2.6-2,3.8-2.7,5.9-3.3c3.2-1,5.7-3.3,6.3-5.8c0.2-1,0.3-1,0.4-0.4
	c0.1,0.4,0,1.4-0.2,2.3c-0.1,0.9-0.2,1.6-0.1,1.6c0.2,0,2.9-1.6,4.2-2.5c1.6-1.1,4.3-3.3,4.9-4c1.1-1.4,5-5.3,6.8-6.8
	c2.3-1.8,3.2-2.2,1.6-0.6c-1.2,1.2-3.1,4.4-3,5.2c0,0.1,0.5-0.5,1.2-1.3c1.1-1.4,3.8-3.4,4.7-3.5c0.2,0,0.4-0.2,0.6-0.4
	c0.1-0.2,0.3-0.4,0.5-0.4c0.4,0,1.7-1.4,2.7-2.7c1-1.4,0.8-1.3,5.9-2.9c5.5-1.8,10.3-3.8,13.7-5.7c1.3-0.7,1.4-0.8,1.2-1.5
	c-0.1-0.7-0.2-0.7-1.7-0.6c-1.7,0.1-5.5,1.2-11.9,3.5c-1,0.4-2.7,0.9-3.7,1.3c-1.1,0.3-2.3,0.8-2.9,1c-1.4,0.5-3.6,0.7-5.6,0.6
	c-2.1-0.1-5.9-1.4-7.2-2.4c-1.1-0.8-1.2-0.6-0.3,0.5c0.6,0.7,1.5,2.6,1.5,3.2c0,0.2-0.2,0-0.5-0.5c-1.1-1.8-4.8-3.8-8.3-4.3
	c-3.7-0.6-5-0.7-5.3-0.7c-0.1,0,0.3,0.4,0.9,0.9c1.5,1.1,4.2,5.3,3.5,5.4c-0.1,0-0.4-0.3-0.6-0.8c-0.7-1.4-3.4-3.2-6-4.1
	c-2.4-0.8-3.4-0.9-7-1c-2.5,0-3.9-0.4-5.8-1.7c-0.7-0.5-1.8-1.1-2.3-1.3c-0.5-0.2-1.4-0.6-2-0.8c-1.7-0.8-7-2.7-7.1-2.5
	c-0.1,0.1,0.2,1,0.6,2c0.4,1,0.9,2.9,1.1,4.2c0.4,2.2,0.4,2.3,0,1.2c-1-2.5-3.6-5.6-5.9-7.1c-1.4-0.9-5.2-2.1-6.9-2.2
	c-0.8,0-2.2-0.3-3-0.5c-1.5-0.5-5.3-2.2-6.9-3.2c-0.5-0.3-1.7-0.7-2.6-1c-0.9-0.2-2-0.5-2.4-0.6c-1.6-0.5-1.6-0.5-0.7,1.1
	c1.5,2.6,5.1,12.6,4.8,13c-0.4,0.5-2.3-2.4-4-6.2c-1.4-3-2.4-4.9-2.8-5.4c-0.2-0.2-0.5-0.6-0.6-0.9c-0.9-1.5-4.2-3.4-5.6-3.2
	c-0.8,0.1-5-0.8-6.3-1.3c-0.2-0.1-1.3-0.5-2.3-0.9c-1.1-0.4-2.8-1.2-3.9-1.8c-1.7-0.9-4.7-2.1-5.1-2.1c-0.1,0,0.2,0.4,0.5,0.9
	c0.7,0.9,1.9,3.3,2.7,5.5c1,2.6,2.2,8.4,1.9,9.5c-0.1,0.3-0.3,0.1-0.7-1c-0.3-0.8-0.7-1.8-0.8-2.3c-0.8-2.7-2.5-5.6-5.1-8.5
	c-2.2-2.5-3.1-3.4-6-5.5c-2.1-1.6-2.8-2-4.2-2.4c-0.9-0.2-2.1-0.6-2.6-0.7c-4-1.2-8.5-2.1-13-2.5c-1-0.1-2.2-0.2-2.6-0.3
	c-0.4-0.1-0.7-0.1-0.8,0c0,0,0.3,0.7,0.8,1.4c2.3,3.6,4.1,8.2,4.5,12c0.4,3.3-0.5,3.1-1.8-0.3c-0.5-1.2-1.2-2.7-1.6-3.3
	c-0.7-1.1-2.4-3.4-2.7-3.6c-0.1-0.1-0.7-0.7-1.4-1.5c-0.7-0.8-2.8-2.5-4.6-3.9L58.5,83l-2.6-0.5c-10.1-1.9-12.4-2.2-15.7-1.8
	c-1.9,0.2-2.3,0.4-3.3,1.1c-2,1.3-3,3.7-3.2,7.7C33.5,91.5,34.2,97.6,34.9,99.9 M59.3,104.3c0.7,0.1,1.9,0.6,2.4,1.1
	c0.1,0.1,1.1,0.7,2,1.3c1,0.6,2,1.2,2.3,1.4c1.3,0.9,9.9,5.3,13.3,6.9c3.5,1.6,3.6,1.7,7.7,3.3c3.2,1.3,12.7,4.5,13.2,4.4
	c0.2,0,0.4,0,0.5,0.1c0.5,0.3,6.7,1.9,10.4,2.6c1.5,0.3,3.3,0.7,4.1,0.8c0.8,0.2,2.3,0.4,3.2,0.5c1,0.1,2.6,0.4,3.6,0.5
	c6.6,1,18.3,1.6,25.1,1.3c1,0,3.4-0.1,5.5-0.2c5.8-0.2,20.2-2,27.2-3.5c9.4-1.9,11.7-2.5,20.9-5.1c3.4-0.9,9.2-2.8,12.2-4
	c4.1-1.5,5-1.8,5.5-1.8c0.3,0,0.1,0.2-0.5,0.4c-1.4,0.6-4.5,1.7-6.5,2.4c-1,0.3-2.4,0.8-3,1.1c-1.2,0.5-3.4,1.2-8.2,2.7
	c-5.2,1.7-11.3,3.4-15.7,4.4c-1.8,0.4-4.9,1.1-7,1.6c-5.5,1.3-26.7,3.9-32.4,4c-9.3,0.2-14.7,0-21.3-0.6c-4.3-0.4-5.5-0.5-6.9-0.8
	c-0.8-0.1-2.1-0.3-3-0.4c-0.9-0.1-1.9-0.3-2.4-0.4c-0.5-0.1-2.2-0.5-3.9-0.8c-1.7-0.3-3.3-0.7-3.7-0.8c-1.2-0.3-3.1-0.8-4.4-1.2
	c-0.7-0.2-2.1-0.6-3.2-0.9c-8-2.5-12.8-4.5-19.1-7.6c-4.1-2-6.1-3.2-10.4-5.9C60.4,107,57.2,104.1,59.3,104.3"/>
</svg>
