<?xml version="1.0" encoding="utf-8"?>
<!-- Generator: Adobe Illustrator 21.0.0, SVG Export Plug-In . SVG Version: 6.00 Build 0)  -->
<svg version="1.1" id="Layer_1" xmlns="http://www.w3.org/2000/svg" xmlns:xlink="http://www.w3.org/1999/xlink" x="0px" y="0px"
	 viewBox="0 0 444.7 206.7" style="enable-background:new 0 0 444.7 206.7;" xml:space="preserve">
<style type="text/css">
	.st0{fill:#FFFFFF;}
</style>
<g>
	<path class="st0" d="M94.2,35.1c0.9,3.3,2.6,7.7,4,10.3c0.2,0.4,0.6,1,0.8,1.4c0.6,1.1,3.7,3.6,6.2,4.8c3.2,1.6,6,2.4,9,2.5
		c3.5,0.1,4,0.2,3.4,0.5c-0.5,0.3-4.5,0.7-6.1,0.6c-2.4-0.1-5.1-0.5-6.9-1.1c-1.4-0.4-1.4-0.6,0.9,1.9c1.4,1.5,4.3,4,6.3,5.4
		c2.5,1.7,2.7,1.8,4.4,2.8c3.4,1.9,5,2.7,6,2.9c1.1,0.2,4,0.2,5.6,0c1.5-0.2,4.3-0.9,4.7-1.2c0.2-0.1,0.4-0.2,0.5-0.2
		c0.4-0.1,2.1-1.2,3.3-2.2c1.5-1.3,1.8-1.5,1.7-1.2c-0.1,0.2-2.6,2.4-4.4,3.9c-1,0.8-3.4,2.5-4.3,3c-0.6,0.3-1,0.6-1,0.6
		c0,0,1,0.3,2.3,0.7c1.2,0.4,2.5,0.8,2.9,0.9c2.8,0.9,6.2,1.6,9,2c0.5,0.1,1.5,0.2,2.2,0.3c0.7,0.1,1.8,0.2,2.6,0.3
		c0.7,0.1,1.8,0.2,2.4,0.2c2,0.2,3.3,0.1,4.4-0.5c1-0.5,1.1-0.6,2.8-1.9c1.3-1,3-3.2,3.9-4.8c0.4-0.7,0.8-1.4,0.9-1.5
		c0.1-0.2,0.4-0.5,0.6-0.9c0.2-0.3,0.4-0.6,0.5-0.5c0.2,0.1-0.3,2.1-1.1,4.4c-0.2,0.7-0.5,1.6-0.7,2c-0.1,0.5-0.5,1.4-0.9,2.1
		c-0.4,0.7-0.6,1.3-0.6,1.4c0,0.2,3.7-0.2,5.2-0.7c3-0.9,4.9-2.2,7.2-5.1c0.8-1,1.4-1.7,1.4-1.6c0,0.1-0.1,0.4-0.3,0.8
		c-0.2,0.4-0.6,1.1-0.8,1.6c-0.3,0.5-1,1.6-1.6,2.4l-1.1,1.4l0.8-0.2c1.5-0.3,4.7-1.3,5.5-1.6c0.4-0.2,0.9-0.4,1.2-0.5
		c1.2-0.4,3-1.8,4.1-3.2c1.5-1.9,2.1-3.6,2.1-5.7l0-1.2l0.2,1.2c0.1,0.7,0.2,1.7,0.1,2.2c0,1.1-0.7,3.3-1.3,4.2
		c-0.2,0.3-0.4,0.6-0.3,0.6c0,0,0.8-0.3,1.7-0.7c1-0.5,2.1-1.2,3-1.8c1.8-1.4,2.6-1.9,4.1-2.3c2.2-0.7,4-2.3,4.4-4.1
		c0.2-0.7,0.2-0.7,0.3-0.3c0,0.3,0,1-0.1,1.6c-0.1,0.6-0.1,1.1-0.1,1.1c0.1,0,2-1.1,3-1.7c1.1-0.7,3-2.3,3.4-2.8
		c0.8-1,3.5-3.7,4.8-4.7c1.6-1.3,2.2-1.5,1.1-0.4c-0.9,0.9-2.2,3.1-2.1,3.6c0,0.1,0.4-0.3,0.8-0.9c0.7-1,2.6-2.4,3.2-2.5
		c0.1,0,0.3-0.1,0.4-0.3c0.1-0.1,0.2-0.3,0.3-0.3c0.3,0,1.2-1,1.9-1.9c0.7-0.9,0.5-0.9,4.1-2c3.8-1.2,7.2-2.6,9.5-4
		c0.9-0.5,1-0.6,0.9-1c-0.1-0.5-0.1-0.5-1.2-0.4c-1.2,0.1-3.8,0.9-8.3,2.5c-0.7,0.2-1.9,0.6-2.6,0.9c-0.7,0.2-1.6,0.5-2,0.7
		c-0.9,0.3-2.5,0.5-3.9,0.4c-1.5-0.1-4.1-1-5-1.7c-0.7-0.6-0.9-0.4-0.2,0.4c0.4,0.5,1,1.8,1.1,2.2c0,0.1-0.1,0-0.3-0.4
		c-0.8-1.3-3.4-2.6-5.8-3c-2.5-0.4-3.5-0.5-3.7-0.5c-0.1,0,0.2,0.3,0.6,0.6c1,0.8,2.9,3.7,2.4,3.7c-0.1,0-0.3-0.2-0.4-0.6
		c-0.5-1-2.3-2.3-4.2-2.9c-1.6-0.5-2.4-0.6-4.9-0.7c-1.7,0-2.7-0.3-4-1.2c-0.5-0.3-1.2-0.7-1.6-0.9s-1-0.4-1.4-0.6
		c-1.2-0.5-4.9-1.8-4.9-1.8c0,0,0.1,0.7,0.4,1.4c0.3,0.7,0.6,2,0.8,2.9c0.3,1.6,0.3,1.6,0,0.8c-0.7-1.7-2.5-3.9-4.1-4.9
		c-1-0.6-3.6-1.5-4.8-1.5c-0.6,0-1.5-0.2-2.1-0.4c-1.1-0.3-3.7-1.5-4.8-2.2c-0.4-0.2-1.2-0.5-1.8-0.7c-0.6-0.2-1.4-0.3-1.7-0.4
		c-1.1-0.3-1.1-0.3-0.5,0.8c1,1.8,3.6,8.7,3.3,9c-0.3,0.4-1.6-1.7-2.8-4.3c-0.9-2.1-1.6-3.4-1.9-3.8c-0.1-0.1-0.3-0.4-0.5-0.6
		c-0.6-1.1-2.9-2.4-3.9-2.3c-0.6,0.1-3.5-0.5-4.4-0.9c-0.1-0.1-0.9-0.3-1.6-0.6c-0.7-0.3-2-0.8-2.7-1.2c-1.2-0.6-3.3-1.5-3.5-1.4
		c-0.1,0,0.1,0.3,0.4,0.6c0.5,0.6,1.3,2.3,1.9,3.8c0.7,1.8,1.5,5.8,1.3,6.6c-0.1,0.2-0.2,0.1-0.5-0.7c-0.2-0.5-0.5-1.3-0.6-1.6
		c-0.5-1.9-1.7-3.9-3.5-5.9c-1.5-1.7-2.2-2.3-4.2-3.9c-1.4-1.1-2-1.4-2.9-1.7c-0.6-0.2-1.4-0.4-1.8-0.5c-2.8-0.8-5.9-1.4-9-1.7
		c-0.7-0.1-1.5-0.2-1.8-0.2c-0.3,0-0.5-0.1-0.5,0c0,0,0.2,0.5,0.6,1c1.6,2.5,2.8,5.7,3.1,8.3c0.3,2.3-0.3,2.2-1.3-0.2
		c-0.3-0.8-0.8-1.9-1.1-2.3c-0.5-0.8-1.6-2.4-1.9-2.5c-0.1,0-0.5-0.5-1-1c-0.5-0.5-1.9-1.8-3.2-2.7l-2.3-1.8l-1.8-0.4
		c-7-1.3-8.6-1.5-10.9-1.2c-1.3,0.2-1.6,0.3-2.3,0.7c-1.4,0.9-2.1,2.6-2.2,5.4C93.2,29.3,93.7,33.5,94.2,35.1 M111.2,38.2
		c0.5,0.1,1.4,0.4,1.7,0.7c0.1,0.1,0.7,0.5,1.4,0.9c0.7,0.4,1.4,0.8,1.6,0.9c0.9,0.6,6.9,3.7,9.3,4.8c2.4,1.1,2.5,1.2,5.4,2.3
		c2.2,0.9,8.9,3.1,9.2,3.1c0.1,0,0.3,0,0.4,0.1c0.3,0.2,4.6,1.3,7.2,1.8c1,0.2,2.3,0.5,2.8,0.6c0.6,0.1,1.6,0.3,2.3,0.4
		c0.7,0.1,1.8,0.3,2.5,0.4c4.6,0.7,12.7,1.1,17.4,0.9c0.7,0,2.4-0.1,3.8-0.1c4.1-0.1,14-1.4,18.9-2.4c6.5-1.3,8.1-1.7,14.5-3.5
		c2.4-0.7,6.4-2,8.5-2.7c2.8-1.1,3.5-1.3,3.8-1.2c0.2,0,0.1,0.1-0.3,0.3c-1,0.4-3.2,1.2-4.5,1.7c-0.7,0.2-1.6,0.6-2.1,0.7
		c-0.8,0.3-2.4,0.8-5.7,1.9c-3.6,1.2-7.8,2.3-10.9,3.1c-1.2,0.3-3.4,0.8-4.8,1.1c-3.8,0.9-18.6,2.7-22.5,2.8
		c-6.5,0.1-10.2,0-14.8-0.4c-3-0.3-3.8-0.4-4.8-0.5c-0.6-0.1-1.5-0.2-2.1-0.3c-0.6-0.1-1.3-0.2-1.7-0.3c-0.3-0.1-1.5-0.3-2.7-0.6
		c-1.2-0.2-2.3-0.5-2.6-0.6c-0.8-0.2-2.1-0.6-3.1-0.8c-0.5-0.1-1.5-0.4-2.2-0.7c-5.5-1.8-8.9-3.1-13.3-5.3c-2.8-1.4-4.3-2.2-7.2-4.1
		C111.9,40,109.7,38,111.2,38.2"/>
	<g>
		<path class="st0" d="M31,73.8h47.5v9.6H42.4v29.3h33.4v9.4H42.4V162H31V73.8z"/>
		<path class="st0" d="M96.7,132.4c0.3,15.6,10.2,22,21.7,22c8.2,0,13.2-1.4,17.5-3.3l2,8.2c-4.1,1.8-11,3.9-21.1,3.9
			c-19.5,0-31.1-12.8-31.1-31.9S97,97.2,115.4,97.2c20.7,0,26.2,18.2,26.2,29.8c0,2.4-0.3,4.2-0.4,5.4H96.7z M130.5,124.2
			c0.1-7.3-3-18.7-16-18.7c-11.6,0-16.8,10.7-17.7,18.7H130.5z"/>
		<path class="st0" d="M190.9,162l-0.9-8h-0.4c-3.5,5-10.3,9.4-19.4,9.4c-12.8,0-19.4-9-19.4-18.2c0-15.3,13.6-23.7,38.1-23.6v-1.3
			c0-5.2-1.4-14.7-14.4-14.7c-5.9,0-12,1.8-16.5,4.7l-2.6-7.6c5.2-3.4,12.8-5.6,20.8-5.6c19.4,0,24.1,13.2,24.1,25.9v23.7
			c0,5.5,0.3,10.9,1,15.2H190.9z M189.2,129.7c-12.6-0.3-26.8,2-26.8,14.3c0,7.5,5,11,10.9,11c8.2,0,13.5-5.2,15.3-10.6
			c0.4-1.2,0.7-2.5,0.7-3.7V129.7z"/>
		<path class="st0" d="M232.3,80.4v18.2h16.5v8.8h-16.5v34.2c0,7.9,2.2,12.3,8.6,12.3c3,0,5.2-0.4,6.7-0.8l0.5,8.6
			c-2.2,0.9-5.8,1.6-10.2,1.6c-5.4,0-9.7-1.7-12.4-4.8c-3.3-3.4-4.4-9-4.4-16.5v-34.5h-9.8v-8.8h9.8V83.5L232.3,80.4z"/>
		<path class="st0" d="M261.7,69.1h11.5v39.5h0.3c1.8-3.3,4.7-6.2,8.2-8.1c3.4-2,7.5-3.3,11.8-3.3c8.5,0,22.1,5.2,22.1,27.1V162
			h-11.5v-36.4c0-10.2-3.8-18.8-14.7-18.8c-7.5,0-13.3,5.2-15.4,11.5c-0.7,1.6-0.8,3.3-0.8,5.5V162h-11.5V69.1z"/>
		<path class="st0" d="M340.8,132.4c0.3,15.6,10.2,22,21.7,22c8.2,0,13.2-1.4,17.5-3.3l2,8.2c-4.1,1.8-11,3.9-21.1,3.9
			c-19.5,0-31.1-12.8-31.1-31.9s11.3-34.2,29.7-34.2c20.7,0,26.2,18.2,26.2,29.8c0,2.4-0.3,4.2-0.4,5.4H340.8z M374.5,124.2
			c0.1-7.3-3-18.7-16-18.7c-11.6,0-16.8,10.7-17.7,18.7H374.5z"/>
		<path class="st0" d="M399.9,118.4c0-7.5-0.1-13.9-0.5-19.8h10.1l0.4,12.4h0.5c2.9-8.5,9.8-13.9,17.5-13.9c1.3,0,2.2,0.1,3.3,0.4
			v10.9c-1.2-0.3-2.4-0.4-3.9-0.4c-8.1,0-13.9,6.2-15.4,14.8c-0.3,1.6-0.5,3.4-0.5,5.4V162h-11.4V118.4z"/>
	</g>
</g>
</svg>
